<?xml version="1.0" encoding="UTF-8" standalone="no"?>
<svg
   xmlns:dc="http://purl.org/dc/elements/1.1/"
   xmlns:cc="http://creativecommons.org/ns#"
   xmlns:rdf="http://www.w3.org/1999/02/22-rdf-syntax-ns#"
   xmlns:svg="http://www.w3.org/2000/svg"
   xmlns="http://www.w3.org/2000/svg"
   xmlns:sodipodi="http://sodipodi.sourceforge.net/DTD/sodipodi-0.dtd"
   xmlns:inkscape="http://www.inkscape.org/namespaces/inkscape"
   version="1.1"
   x="0px"
   y="0px"
   viewBox="0 0 1000 1000"
   enable-background="new 0 0 1000 1000"
   xml:space="preserve"
   id="svg8"
   sodipodi:docname="img_352807.svg"
   inkscape:version="1.0.2 (e86c870879, 2021-01-15, custom)"><defs
   id="defs12" /><sodipodi:namedview
   pagecolor="#525255"
   bordercolor="#666666"
   borderopacity="1"
   objecttolerance="10"
   gridtolerance="10"
   guidetolerance="10"
   inkscape:pageopacity="0"
   inkscape:pageshadow="2"
   inkscape:window-width="1366"
   inkscape:window-height="748"
   id="namedview10"
   showgrid="false"
   inkscape:zoom="0.535"
   inkscape:cx="500"
   inkscape:cy="500"
   inkscape:window-x="0"
   inkscape:window-y="20"
   inkscape:window-maximized="0"
   inkscape:current-layer="svg8" />
<metadata
   id="metadata2"> Svg Vector Icons : http://www.onlinewebfonts.com/icon <rdf:RDF><cc:Work
     rdf:about=""><dc:format>image/svg+xml</dc:format><dc:type
       rdf:resource="http://purl.org/dc/dcmitype/StillImage" /><dc:title></dc:title></cc:Work></rdf:RDF></metadata>
<g
   id="g6"
   style="fill:#ffffff"><path
     d="M638.6,500l322.7-322.7c38.3-38.3,38.3-100.3,0-138.6C923,0.4,861,0.4,822.7,38.7L500,361.4L177.3,38.7C139,0.4,77,0.4,38.7,38.7C0.4,77,0.4,139,38.7,177.3L361.4,500L38.7,822.7C0.4,861,0.4,923,38.7,961.3C57.9,980.4,82.9,990,108,990s50.1-9.6,69.3-28.7L500,638.6l322.7,322.7c19.1,19.1,44.2,28.7,69.3,28.7c25.1,0,50.1-9.6,69.3-28.7c38.3-38.3,38.3-100.3,0-138.6L638.6,500z"
     id="path4"
     style="fill:#ffffff" /></g>
</svg>
